<?xml version="1.0" encoding="UTF-8" standalone="no"?>
<!-- Created with Inkscape (http://www.inkscape.org/) -->

<svg
   xmlns:dc="http://purl.org/dc/elements/1.1/"
   xmlns:cc="http://creativecommons.org/ns#"
   xmlns:rdf="http://www.w3.org/1999/02/22-rdf-syntax-ns#"
   xmlns:svg="http://www.w3.org/2000/svg"
   xmlns="http://www.w3.org/2000/svg"
   xmlns:sodipodi="http://sodipodi.sourceforge.net/DTD/sodipodi-0.dtd"
   xmlns:inkscape="http://www.inkscape.org/namespaces/inkscape"
   width="1400mm"
   height="560mm"
   viewBox="0 0 1400 560"
   version="1.1"
   id="svg8"
   inkscape:version="0.92.3 (2405546, 2018-03-11)"
   sodipodi:docname="chrome_large_marquee.svg"
   inkscape:export-filename="/home/lukas/git/piwik-injector/docs/chrome_large_marquee.png"
   inkscape:export-xdpi="25.4"
   inkscape:export-ydpi="25.4">
  <defs
     id="defs2" />
  <sodipodi:namedview
     id="base"
     pagecolor="#ffffff"
     bordercolor="#666666"
     borderopacity="1.0"
     inkscape:pageopacity="0.0"
     inkscape:pageshadow="2"
     inkscape:zoom="0.175"
     inkscape:cx="2262.5136"
     inkscape:cy="1131.678"
     inkscape:document-units="mm"
     inkscape:current-layer="layer1"
     showgrid="false"
     inkscape:window-width="1920"
     inkscape:window-height="1051"
     inkscape:window-x="0"
     inkscape:window-y="0"
     inkscape:window-maximized="1"
     inkscape:snap-bbox="true"
     inkscape:bbox-paths="true"
     inkscape:bbox-nodes="true"
     inkscape:snap-bbox-edge-midpoints="true"
     inkscape:snap-bbox-midpoints="true"
     inkscape:object-paths="true"
     inkscape:snap-intersection-paths="true"
     inkscape:snap-smooth-nodes="true"
     inkscape:snap-midpoints="true"
     inkscape:snap-object-midpoints="true"
     inkscape:snap-center="true"
     inkscape:snap-text-baseline="true"
     inkscape:snap-page="true" />
  <metadata
     id="metadata5">
    <rdf:RDF>
      <cc:Work
         rdf:about="">
        <dc:format>image/svg+xml</dc:format>
        <dc:type
           rdf:resource="http://purl.org/dc/dcmitype/StillImage" />
        <dc:title />
      </cc:Work>
    </rdf:RDF>
  </metadata>
  <g
     inkscape:label="Ebene 1"
     inkscape:groupmode="layer"
     id="layer1"
     transform="translate(0,263)">
    <rect
       style="opacity:1;fill:#d9292a;fill-opacity:1;stroke:#aa0000;stroke-width:0.4064;stroke-linecap:butt;stroke-linejoin:round;stroke-miterlimit:10;stroke-dasharray:none;stroke-opacity:1"
       id="rect1499"
       width="1399.5936"
       height="559.59351"
       x="0.20318604"
       y="-262.79681"
       ry="0"
       rx="0" />
    <text
       xml:space="preserve"
       style="font-style:normal;font-weight:normal;font-size:103.06502533px;line-height:64.41564178px;font-family:sans-serif;letter-spacing:0px;word-spacing:0px;fill:#ffffff;fill-opacity:1;stroke:none;stroke-width:0.26458335px;stroke-linecap:butt;stroke-linejoin:miter;stroke-opacity:1"
       x="291.63077"
       y="199.56245"
       id="text2096"
       transform="scale(0.99984453,1.0001555)"><tspan
         sodipodi:role="line"
         id="tspan2094"
         x="291.63077"
         y="199.56245"
         style="font-style:normal;font-variant:normal;font-weight:bold;font-stretch:normal;font-family:'TeX Gyre Heros';-inkscape-font-specification:'TeX Gyre Heros Bold';fill:#ffffff;stroke-width:0.26458335px">Browser Injector</tspan></text>
    <path
       d="M 426.71546,-175.56044 H 365.19078 L 338.91924,-59.920815 312.64769,-175.56044 h -63.0965 v 154.934555 h 40.41769 v -65.1174 c 0,-13.47265 0,-33.456885 -0.44908,-49.174855 2.46998,15.71797 6.96085,35.702365 10.55358,49.174855 l 17.28979,65.1174 h 41.54045 l 17.06519,-65.1174 c 3.59273,-13.6971 8.0836,-33.456885 10.77803,-49.174855 -0.44907,15.71797 -0.44907,35.702365 -0.44907,49.174855 v 65.1174 h 40.41769 z m 94.71865,154.934555 h 39.5195 c -1.7963,-13.248 -2.2453,-21.3316 -2.2453,-30.31334 v -33.68146 c 0,-7.409915 -0.2247,-14.37078 -0.6737,-20.433485 -1.7963,-21.78068 -14.8199,-38.62141 -52.7676,-38.62141 -30.3133,0 -55.23749,15.94259 -55.46211,44.010425 l 38.17231,-0.22461 c 0.6737,-10.328965 6.0627,-16.391665 15.4935,-16.391665 8.7572,0 13.6971,5.38901 14.3708,11.45171 0.4491,3.81719 0.4491,6.287165 0.4491,8.757145 v 1.796295 h -7.6346 c -40.6423,0 -64.8929,15.717985 -64.8929,41.315845 0,23.12788 18.63701,35.47774 38.3968,35.47774 11.0026,0 21.107,-2.69458 29.6396,-8.08359 l 4.94,-12.57448 z m -20.6581,-24.25064 c -8.0836,0 -13.6971,-4.0418 -13.6971,-11.2271 0,-11.90079 13.0236,-16.61612 31.2115,-15.26891 v 7.85899 c 0,12.57447 -9.4308,18.63702 -17.5144,18.63702 z m 130.8839,-69.608315 h 26.4961 v -25.14878 h -26.4961 v -30.98688 h -40.4176 v 30.98688 h -19.0861 v 25.14878 h 19.0861 v 50.073155 c 0,6.73623 0,12.34986 0.449,19.3107 1.3472,18.41255 10.329,27.61876 40.1933,27.61876 8.5326,0 15.9425,-0.67369 23.8015,-2.0209 v -25.14879 c -19.0861,0.89814 -22.9034,-1.79628 -23.8015,-13.92169 -0.2247,-3.14365 -0.2247,-7.63453 -0.2247,-11.67617 z m 97.7955,-29.19059 c -39.2949,0 -64.4439,24.47511 -64.4439,63.096545 0,38.39679 25.1488,63.0965 64.4439,63.0965 39.2951,0 64.4439,-24.69971 64.4439,-63.0965 0,-38.621435 -25.1488,-63.096545 -64.4439,-63.096545 z m 0,98.798905 c -14.3708,0 -23.1279,-11.90079 -23.1279,-35.70236 0,-24.026065 8.7571,-35.702385 23.1279,-35.702385 14.3707,0 23.1279,11.67617 23.1279,35.702385 0,23.80157 -8.7572,35.70236 -23.1279,35.70236 z m 274.63709,-68.485555 c -2.6945,-16.39166 -16.16709,-30.31335 -40.19329,-30.31335 -11.0026,0 -18.4126,2.46998 -25.8224,6.96085 l -12.5745,16.39166 c -5.1646,-13.248 -17.9635,-23.35251 -38.3968,-23.35251 -11.0027,0 -18.4126,2.46998 -25.8225,6.96085 l -9.6552,15.49351 v -19.3107 h -40.4177 v 119.905885 h 40.4177 v -63.32112 c 0,-20.433485 5.1645,-32.334265 18.1879,-32.334265 10.5535,0 15.9426,6.73622 17.2898,18.18795 0.6735,6.06272 0.8981,12.574485 0.8981,16.391675 v 61.0756 h 40.4177 v -63.32111 c 0,-20.433495 5.1646,-32.334275 18.188,-32.334275 10.5536,0 15.9425,6.73623 17.2898,18.18795 0.6735,6.06272 0.8981,12.574495 0.8981,16.391685 v 61.0756 h 40.41769 v -70.05735 c 0,-9.655295 -0.2246,-16.616145 -1.1228,-22.678845 z m 81.9125,-30.31335 c -39.295,0 -64.4438,24.47511 -64.4438,63.096545 0,38.39679 25.1488,63.0965 64.4438,63.0965 39.2951,0 64.4438,-24.69971 64.4438,-63.0965 0,-38.621435 -25.1488,-63.096545 -64.4438,-63.096545 z m 0,98.798905 c -14.3707,0 -23.128,-11.90079 -23.128,-35.70236 0,-24.026065 8.7573,-35.702385 23.128,-35.702385 14.3708,0 23.1279,11.67617 23.1279,35.702385 0,23.80157 -8.7572,35.70236 -23.1279,35.70236 z"
       horiz-adv-x="5836"
       id="path2"
       style="fill:#ffffff;stroke-width:0.26458332"
       inkscape:connector-curvature="0" />
  </g>
</svg>
