<?xml version="1.0" encoding="UTF-8" standalone="no"?>
<!-- Created with Inkscape (http://www.inkscape.org/) -->

<svg
   xmlns:dc="http://purl.org/dc/elements/1.1/"
   xmlns:cc="http://creativecommons.org/ns#"
   xmlns:rdf="http://www.w3.org/1999/02/22-rdf-syntax-ns#"
   xmlns:svg="http://www.w3.org/2000/svg"
   xmlns="http://www.w3.org/2000/svg"
   xmlns:sodipodi="http://sodipodi.sourceforge.net/DTD/sodipodi-0.dtd"
   xmlns:inkscape="http://www.inkscape.org/namespaces/inkscape"
   width="1400"
   height="560"
   viewBox="0 0 370.41668 148.16667"
   version="1.1"
   id="svg8"
   inkscape:version="0.92.3 (2405546, 2018-03-11)"
   sodipodi:docname="chrome_large_marquee.svg"
   inkscape:export-filename="/home/lukas/git/piwik-injector/docs/chrome_large_marquee.png"
   inkscape:export-xdpi="25.4"
   inkscape:export-ydpi="25.4">
  <defs
     id="defs2" />
  <sodipodi:namedview
     id="base"
     pagecolor="#ffffff"
     bordercolor="#666666"
     borderopacity="1.0"
     inkscape:pageopacity="0.0"
     inkscape:pageshadow="2"
     inkscape:zoom="0.7"
     inkscape:cx="687.79182"
     inkscape:cy="532.63759"
     inkscape:document-units="px"
     inkscape:current-layer="layer1"
     showgrid="false"
     inkscape:window-width="1920"
     inkscape:window-height="1051"
     inkscape:window-x="0"
     inkscape:window-y="0"
     inkscape:window-maximized="1"
     inkscape:snap-bbox="true"
     inkscape:bbox-paths="true"
     inkscape:bbox-nodes="true"
     inkscape:snap-bbox-edge-midpoints="true"
     inkscape:snap-bbox-midpoints="true"
     inkscape:object-paths="true"
     inkscape:snap-intersection-paths="true"
     inkscape:snap-smooth-nodes="true"
     inkscape:snap-midpoints="true"
     inkscape:snap-object-midpoints="true"
     inkscape:snap-center="true"
     inkscape:snap-text-baseline="true"
     inkscape:snap-page="true"
     units="px" />
  <metadata
     id="metadata5">
    <rdf:RDF>
      <cc:Work
         rdf:about="">
        <dc:format>image/svg+xml</dc:format>
        <dc:type
           rdf:resource="http://purl.org/dc/dcmitype/StillImage" />
        <dc:title></dc:title>
      </cc:Work>
    </rdf:RDF>
  </metadata>
  <g
     inkscape:label="Ebene 1"
     inkscape:groupmode="layer"
     id="layer1"
     transform="translate(0,-148.83334)">
    <rect
       style="opacity:1;fill:#d9292a;fill-opacity:1;stroke:#aa0000;stroke-width:0.4064;stroke-linecap:butt;stroke-linejoin:round;stroke-miterlimit:10;stroke-dasharray:none;stroke-opacity:1"
       id="rect1499"
       width="370.01035"
       height="147.76027"
       x="0.2032"
       y="149.03654"
       ry="0"
       rx="0" />
    <text
       xml:space="preserve"
       style="font-style:normal;font-weight:normal;font-size:27.23076248px;line-height:17.01922607px;font-family:sans-serif;letter-spacing:0px;word-spacing:0px;fill:#ffffff;fill-opacity:1;stroke:none;stroke-width:0.26458335px;stroke-linecap:butt;stroke-linejoin:miter;stroke-opacity:1"
       x="77.201042"
       y="271.25269"
       id="text2096"
       transform="scale(1.0004512,0.99954896)"><tspan
         sodipodi:role="line"
         id="tspan2094"
         x="77.201042"
         y="271.25269"
         style="font-style:normal;font-variant:normal;font-weight:bold;font-stretch:normal;font-family:'TeX Gyre Heros';-inkscape-font-specification:'TeX Gyre Heros Bold';fill:#ffffff;stroke-width:0.26458335px">Browser Injector</tspan></text>
    <path
       d="M 112.96018,172.07121 H 96.694912 l -6.945403,30.53456 -6.945406,-30.53456 H 66.123291 v 40.91036 h 10.685218 v -17.1942 c 0,-3.55745 0,-8.83427 -0.118723,-12.98459 0.652988,4.15032 1.840239,9.42718 2.790049,12.98459 l 4.570899,17.1942 h 10.982042 l 4.511522,-17.1942 c 0.949812,-3.61671 2.137062,-8.83427 2.849382,-12.98459 -0.11872,4.15032 -0.11872,9.42718 -0.11872,12.98459 v 17.1942 h 10.68522 z m 25.04076,40.91036 h 10.44776 c -0.47489,-3.49813 -0.59359,-5.63259 -0.59359,-8.00422 v -8.89356 c 0,-1.95659 -0.0594,-3.7946 -0.1781,-5.39545 -0.47489,-5.75117 -3.91794,-10.19796 -13.95017,-10.19796 -8.01392,0 -14.60312,4.20963 -14.66251,11.62093 l 10.09161,-0.0593 c 0.17811,-2.72736 1.6028,-4.32821 4.09602,-4.32821 2.31514,0 3.6211,1.42296 3.7992,3.02382 0.11873,1.00792 0.11873,1.66012 0.11873,2.31231 v 0.47431 h -2.01836 c -10.7446,0 -17.15572,4.15033 -17.15572,10.90942 0,6.1069 4.92706,9.36788 10.15095,9.36788 2.90876,0 5.58006,-0.71151 7.83582,-2.13447 l 1.30599,-3.32028 z m -5.46138,-6.40337 c -2.13706,0 -3.6211,-1.06723 -3.6211,-2.9645 0,-3.1424 3.44305,-4.38748 8.25138,-4.03175 v 2.07516 c 0,3.32028 -2.49322,4.92109 -4.63028,4.92109 z m 34.60176,-18.38002 h 7.00477 v -6.64052 h -7.00477 v -8.18206 h -10.6852 v 8.18206 h -5.04579 v 6.64052 h 5.04579 v 13.22178 c 0,1.7787 0,3.26097 0.1187,5.09898 0.35616,4.86182 2.73068,7.29271 10.6259,7.29271 2.25576,0 4.21472,-0.17789 6.2924,-0.53362 v -6.64052 c -5.04579,0.23716 -6.05497,-0.4743 -6.2924,-3.67601 -0.0594,-0.83008 -0.0594,-2.01589 -0.0594,-3.08308 z m 25.85418,-7.70776 c -10.38839,0 -17.03703,6.46264 -17.03703,16.6606 0,10.13865 6.64859,16.66059 17.03703,16.66059 10.38844,0 17.03702,-6.52194 17.03702,-16.66059 0,-10.19796 -6.64858,-16.6606 -17.03702,-16.6606 z m 0,26.08778 c -3.79921,0 -6.11432,-3.14239 -6.11432,-9.42718 0,-6.34406 2.31511,-9.42719 6.11432,-9.42719 3.79918,0 6.11432,3.08309 6.11432,9.42719 0,6.28479 -2.31514,9.42718 -6.11432,9.42718 z m 72.60576,-18.08356 c -0.71234,-4.3282 -4.27409,-8.00422 -10.62589,-8.00422 -2.90876,0 -4.86774,0.6522 -6.82666,1.83801 l -3.32432,4.32821 c -1.36537,-3.49813 -4.74901,-6.16622 -10.15096,-6.16622 -2.90878,0 -4.86774,0.6522 -6.82669,1.83801 l -2.55254,4.09105 v -5.09898 h -10.68522 v 31.66107 h 10.68522 v -16.7199 c 0,-5.39545 1.36533,-8.53784 4.80833,-8.53784 2.79003,0 4.21474,1.7787 4.5709,4.80252 0.17805,1.60085 0.23743,3.32028 0.23743,4.32821 v 16.12697 h 10.68522 v -16.7199 c 0,-5.39545 1.36537,-8.53784 4.80836,-8.53784 2.79005,0 4.21472,1.7787 4.5709,4.80252 0.17806,1.60085 0.23743,3.32028 0.23743,4.32821 v 16.12697 h 10.68522 v -18.4986 c 0,-2.54947 -0.0594,-4.38748 -0.29683,-5.98833 z m 21.6552,-8.00422 c -10.38841,0 -17.037,6.46264 -17.037,16.6606 0,10.13865 6.64859,16.66059 17.037,16.66059 10.38844,0 17.037,-6.52194 17.037,-16.66059 0,-10.19796 -6.64859,-16.6606 -17.037,-16.6606 z m 0,26.08778 c -3.79918,0 -6.11435,-3.14239 -6.11435,-9.42718 0,-6.34406 2.31517,-9.42719 6.11435,-9.42719 3.79921,0 6.11432,3.08309 6.11432,9.42719 0,6.28479 -2.31514,9.42718 -6.11432,9.42718 z"
       horiz-adv-x="5836"
       id="path2"
       style="fill:#ffffff;stroke-width:0.26458332"
       inkscape:connector-curvature="0" />
  </g>
</svg>
