<?xml version="1.0" encoding="UTF-8" standalone="no"?>
<!-- Created with Inkscape (http://www.inkscape.org/) -->

<svg
   xmlns:dc="http://purl.org/dc/elements/1.1/"
   xmlns:cc="http://creativecommons.org/ns#"
   xmlns:rdf="http://www.w3.org/1999/02/22-rdf-syntax-ns#"
   xmlns:svg="http://www.w3.org/2000/svg"
   xmlns="http://www.w3.org/2000/svg"
   xmlns:sodipodi="http://sodipodi.sourceforge.net/DTD/sodipodi-0.dtd"
   xmlns:inkscape="http://www.inkscape.org/namespaces/inkscape"
   width="440mm"
   height="280mm"
   viewBox="0 0 440 280"
   version="1.1"
   id="svg8"
   inkscape:version="0.92.3 (2405546, 2018-03-11)"
   sodipodi:docname="chrome_small_tile.svg"
   inkscape:export-filename="/home/lukas/git/piwik-injector/docs/chrome_small_tile.png"
   inkscape:export-xdpi="25.4"
   inkscape:export-ydpi="25.4">
  <defs
     id="defs2" />
  <sodipodi:namedview
     id="base"
     pagecolor="#ffffff"
     bordercolor="#666666"
     borderopacity="1.0"
     inkscape:pageopacity="0.0"
     inkscape:pageshadow="2"
     inkscape:zoom="0.35"
     inkscape:cx="1.2388686"
     inkscape:cy="495.85465"
     inkscape:document-units="mm"
     inkscape:current-layer="layer1"
     showgrid="false"
     inkscape:window-width="1920"
     inkscape:window-height="1051"
     inkscape:window-x="0"
     inkscape:window-y="0"
     inkscape:window-maximized="1"
     inkscape:snap-bbox="true"
     inkscape:bbox-paths="true"
     inkscape:bbox-nodes="true"
     inkscape:snap-bbox-edge-midpoints="true"
     inkscape:snap-bbox-midpoints="true"
     inkscape:object-paths="true"
     inkscape:snap-intersection-paths="true"
     inkscape:snap-smooth-nodes="true"
     inkscape:snap-midpoints="true"
     inkscape:snap-object-midpoints="true"
     inkscape:snap-center="true"
     inkscape:snap-text-baseline="true"
     inkscape:snap-page="true" />
  <metadata
     id="metadata5">
    <rdf:RDF>
      <cc:Work
         rdf:about="">
        <dc:format>image/svg+xml</dc:format>
        <dc:type
           rdf:resource="http://purl.org/dc/dcmitype/StillImage" />
        <dc:title />
      </cc:Work>
    </rdf:RDF>
  </metadata>
  <g
     inkscape:label="Ebene 1"
     inkscape:groupmode="layer"
     id="layer1"
     transform="translate(0,-17)">
    <rect
       style="opacity:1;fill:#d9292a;fill-opacity:1;stroke:#aa0000;stroke-width:0.4064;stroke-linecap:butt;stroke-linejoin:round;stroke-miterlimit:10;stroke-dasharray:none;stroke-opacity:1"
       id="rect1499"
       width="439.5936"
       height="279.5936"
       x="0.2032"
       y="17.203205"
       ry="0"
       rx="0" />
    <text
       xml:space="preserve"
       style="font-style:normal;font-weight:normal;font-size:42.40887833px;line-height:26.50554848px;font-family:sans-serif;letter-spacing:0px;word-spacing:0px;fill:#ffffff;fill-opacity:1;stroke:none;stroke-width:0.26458335px;stroke-linecap:butt;stroke-linejoin:miter;stroke-opacity:1"
       x="51.920689"
       y="218.16727"
       id="text2096"><tspan
         sodipodi:role="line"
         id="tspan2094"
         x="51.920689"
         y="218.16727"
         style="font-style:normal;font-variant:normal;font-weight:bold;font-stretch:normal;font-family:'TeX Gyre Heros';-inkscape-font-specification:'TeX Gyre Heros Bold';fill:#ffffff;stroke-width:0.26458335px">Browser Injector</tspan></text>
    <path
       d="m 142.74835,67.514548 h -17.3917 l -7.4264,32.688832 -7.4264,-32.688832 H 92.66783 v 43.796662 h 11.42521 V 92.903918 c 0,-3.80843 0,-9.45754 -0.12695,-13.90068 0.69822,4.44314 1.96769,10.0923 2.98327,13.90068 l 4.88745,18.407292 h 11.7426 l 4.82395,-18.407292 c 1.01559,-3.87188 2.28506,-9.45754 3.04672,-13.90068 -0.12694,4.44314 -0.12694,10.0923 -0.12694,13.90068 v 18.407292 h 11.42521 z m 26.77492,43.796662 h 11.17131 c -0.50777,-3.74492 -0.63469,-6.02998 -0.63469,-8.56893 v -9.521022 c 0,-2.09462 -0.0635,-4.06232 -0.19045,-5.77611 -0.50778,-6.15693 -4.18925,-10.91744 -14.91626,-10.91744 -8.56892,0 -15.61445,4.50663 -15.67794,12.44079 l 10.79049,-0.0635 c 0.19044,-2.91978 1.7138,-4.63357 4.37968,-4.63357 2.47546,0 3.87187,1.52335 4.06231,3.23715 0.12695,1.07903 0.12695,1.77725 0.12695,2.47546 v 0.50776 h -2.15813 c -11.4887,0 -18.34383,4.44314 -18.34383,11.679112 0,6.53775 5.26828,10.02879 10.85395,10.02879 3.1102,0 5.96649,-0.76169 8.37847,-2.28506 l 1.39643,-3.55453 z m -5.8396,-6.85513 c -2.28506,0 -3.87187,-1.14254 -3.87187,-3.17367 0,-3.364092 3.68149,-4.697012 8.82281,-4.316182 v 2.22156 c 0,3.554542 -2.66588,5.268292 -4.95094,5.268292 z m 36.99808,-19.676772 h 7.48987 v -7.10902 h -7.48987 v -8.75933 h -11.4252 v 8.75933 h -5.39523 v 7.10902 h 5.39523 v 14.1546 c 0,1.904182 0,3.491032 0.12693,5.458712 0.38082,5.20484 2.91978,7.80723 11.36177,7.80723 2.41198,0 4.50661,-0.19043 6.72817,-0.57126 v -7.10902 c -5.39523,0.25388 -6.47429,-0.50777 -6.72817,-3.93537 -0.0635,-0.888632 -0.0635,-2.158122 -0.0635,-3.300602 z m 27.64466,-8.25156 c -11.10782,0 -18.2169,6.91858 -18.2169,17.83604 0,10.853952 7.10903,17.836022 18.2169,17.836022 11.10789,0 18.2169,-6.98207 18.2169,-17.836022 0,-10.91746 -7.10901,-17.83604 -18.2169,-17.83604 z m 0,27.928332 c -4.06231,0 -6.53776,-3.3641 -6.53776,-10.092292 0,-6.79165 2.47545,-10.0923 6.53776,-10.0923 4.06229,0 6.53776,3.3006 6.53776,10.0923 0,6.728192 -2.47547,10.092292 -6.53776,10.092292 z M 305.9604,85.096678 c -0.76167,-4.63357 -4.57008,-8.56893 -11.36177,-8.56893 -3.1102,0 -5.20485,0.69821 -7.29943,1.96768 l -3.55455,4.63357 c -1.45991,-3.74492 -5.0779,-6.60125 -10.85395,-6.60125 -3.11023,0 -5.20484,0.69821 -7.29946,1.96768 l -2.72932,4.37969 v -5.45872 h -11.42521 v 33.894812 h 11.42521 V 93.411688 c 0,-5.77611 1.45989,-9.1402 5.14133,-9.1402 2.98324,0 4.50663,1.90418 4.88745,5.14134 0.19039,1.71381 0.25387,3.55454 0.25387,4.63358 v 17.264752 h 11.42522 V 93.411648 c 0,-5.77611 1.45993,-9.14021 5.14136,-9.14021 2.98327,0 4.50659,1.9042 4.88745,5.14135 0.19038,1.7138 0.25387,3.55454 0.25387,4.63358 v 17.264752 h 11.4252 V 91.507418 c 0,-2.72935 -0.0635,-4.69703 -0.31739,-6.41083 z m 23.15491,-8.56893 c -11.10786,0 -18.21689,6.91858 -18.21689,17.83604 0,10.853952 7.10903,17.836022 18.21689,17.836022 11.10787,0 18.21686,-6.98207 18.21686,-17.836022 0,-10.91746 -7.10901,-17.83604 -18.21686,-17.83604 z m 0,27.928332 c -4.0623,0 -6.5378,-3.3641 -6.5378,-10.092292 0,-6.79165 2.4755,-10.0923 6.5378,-10.0923 4.0623,0 6.53775,3.3006 6.53775,10.0923 0,6.728192 -2.47548,10.092292 -6.53775,10.092292 z"
       horiz-adv-x="5836"
       id="path2"
       style="fill:#ffffff;stroke-width:0.26458332"
       inkscape:connector-curvature="0" />
  </g>
</svg>
