<?xml version="1.0" encoding="UTF-8" standalone="no"?>
<!-- Created with Inkscape (http://www.inkscape.org/) -->

<svg
   xmlns:dc="http://purl.org/dc/elements/1.1/"
   xmlns:cc="http://creativecommons.org/ns#"
   xmlns:rdf="http://www.w3.org/1999/02/22-rdf-syntax-ns#"
   xmlns:svg="http://www.w3.org/2000/svg"
   xmlns="http://www.w3.org/2000/svg"
   xmlns:sodipodi="http://sodipodi.sourceforge.net/DTD/sodipodi-0.dtd"
   xmlns:inkscape="http://www.inkscape.org/namespaces/inkscape"
   width="920"
   height="680"
   viewBox="0 0 243.41667 179.91666"
   version="1.1"
   id="svg8"
   inkscape:version="0.92.3 (2405546, 2018-03-11)"
   sodipodi:docname="chrome_large_tile.svg"
   inkscape:export-filename="/home/lukas/git/piwik-injector/docs/chrome_large_tile.png"
   inkscape:export-xdpi="96.000069"
   inkscape:export-ydpi="96.000069">
  <defs
     id="defs2" />
  <sodipodi:namedview
     id="base"
     pagecolor="#ffffff"
     bordercolor="#666666"
     borderopacity="1.0"
     inkscape:pageopacity="0.0"
     inkscape:pageshadow="2"
     inkscape:zoom="0.49497475"
     inkscape:cx="192.09469"
     inkscape:cy="369.16002"
     inkscape:document-units="px"
     inkscape:current-layer="layer1"
     showgrid="false"
     inkscape:window-width="1920"
     inkscape:window-height="1051"
     inkscape:window-x="0"
     inkscape:window-y="0"
     inkscape:window-maximized="1"
     inkscape:snap-bbox="true"
     inkscape:bbox-paths="true"
     inkscape:bbox-nodes="true"
     inkscape:snap-bbox-edge-midpoints="true"
     inkscape:snap-bbox-midpoints="true"
     inkscape:object-paths="true"
     inkscape:snap-intersection-paths="true"
     inkscape:snap-smooth-nodes="true"
     inkscape:snap-midpoints="true"
     inkscape:snap-object-midpoints="true"
     inkscape:snap-center="true"
     inkscape:snap-text-baseline="true"
     inkscape:snap-page="true"
     units="px" />
  <metadata
     id="metadata5">
    <rdf:RDF>
      <cc:Work
         rdf:about="">
        <dc:format>image/svg+xml</dc:format>
        <dc:type
           rdf:resource="http://purl.org/dc/dcmitype/StillImage" />
        <dc:title></dc:title>
      </cc:Work>
    </rdf:RDF>
  </metadata>
  <g
     inkscape:label="Ebene 1"
     inkscape:groupmode="layer"
     id="layer1"
     transform="translate(0,-117.08339)">
    <rect
       style="opacity:1;fill:#d9292a;fill-opacity:1;stroke:#aa0000;stroke-width:0.4064;stroke-linecap:butt;stroke-linejoin:round;stroke-miterlimit:10;stroke-dasharray:none;stroke-opacity:1"
       id="rect1499"
       width="243.0101"
       height="179.51013"
       x="0.20318604"
       y="117.28659"
       ry="0"
       rx="0" />
    <text
       xml:space="preserve"
       style="font-style:normal;font-weight:normal;font-size:27.22985649px;line-height:17.0186615px;font-family:sans-serif;letter-spacing:0px;word-spacing:0px;fill:#ffffff;fill-opacity:1;stroke:none;stroke-width:0.26458335px;stroke-linecap:butt;stroke-linejoin:miter;stroke-opacity:1"
       x="13.780507"
       y="254.01682"
       id="text2096"
       transform="scale(1.0000617,0.99993827)"><tspan
         sodipodi:role="line"
         id="tspan2094"
         x="13.780507"
         y="254.01682"
         style="font-style:normal;font-variant:normal;font-weight:bold;font-stretch:normal;font-family:'TeX Gyre Heros';-inkscape-font-specification:'TeX Gyre Heros Bold';fill:#ffffff;stroke-width:0.26458335px">Browser Injector</tspan></text>
    <path
       d="m 65.182089,144.73591 h -12.72576 l -5.434001,23.9085 -5.434007,-23.9085 H 28.53745 v 32.03273 h 8.359991 v -13.46302 c 0,-2.78548 0,-6.91722 -0.09289,-10.16691 0.510893,3.24969 1.439784,7.38147 2.182902,10.16691 l 3.576219,13.46302 h 8.592221 l 3.529762,-13.46302 c 0.74312,-2.83188 1.672012,-6.91722 2.229327,-10.16691 -0.09288,3.24969 -0.09288,7.38147 -0.09288,10.16691 v 13.46302 h 8.359991 z m 19.591596,32.03273 h 8.174207 c -0.371541,-2.73902 -0.464412,-4.41031 -0.464412,-6.26728 v -6.96365 c 0,-1.532 -0.04648,-2.97116 -0.139351,-4.22462 -0.371547,-4.50316 -3.065345,-7.98498 -10.914446,-7.98498 -6.27,0 -11.425316,3.29613 -11.471776,9.09915 l 7.895558,-0.0464 c 0.139346,-2.13552 1.254008,-3.38898 3.204672,-3.38898 1.811338,0 2.833108,1.11418 2.972457,2.36764 0.09289,0.78921 0.09289,1.29987 0.09289,1.81054 v 0.37139 h -1.579141 c -8.40645,0 -13.422442,3.24969 -13.422442,8.54205 0,4.78169 3.854879,7.33503 7.94199,7.33503 2.275778,0 4.365769,-0.55711 6.130652,-1.67129 l 1.021791,-2.59977 z m -4.272919,-5.01382 c -1.672012,0 -2.833106,-0.83564 -2.833106,-2.3212 0,-2.46049 2.6938,-3.43539 6.455784,-3.15685 v 1.62485 c 0,2.59977 -1.950667,3.8532 -3.622678,3.8532 z M 107.57278,157.3633 h 5.48045 v -5.19952 h -5.48045 v -6.40654 h -8.359974 v 6.40654 h -3.947763 v 5.19952 h 3.947763 v 10.35263 c 0,1.39271 0,2.55333 0.09287,3.99248 0.278652,3.8068 2.136454,5.71018 8.313584,5.71018 1.76488,0 3.29754,-0.13928 4.92309,-0.41782 v -5.19951 c -3.94776,0.18569 -4.73733,-0.37138 -4.92309,-2.87831 -0.0465,-0.64995 -0.0465,-1.57844 -0.0465,-2.41405 z m 20.22801,-6.03516 c -8.12775,0 -13.32957,5.06023 -13.32957,13.04522 0,7.93853 5.20178,13.0452 13.32957,13.0452 8.1278,0 13.32957,-5.10667 13.32957,-13.0452 0,-7.98499 -5.20177,-13.04522 -13.32957,-13.04522 z m 0,20.42668 c -2.97245,0 -4.78377,-2.46049 -4.78377,-7.38146 0,-4.9674 1.81132,-7.38148 4.78377,-7.38148 2.97243,0 4.78378,2.41405 4.78378,7.38148 0,4.92097 -1.81135,7.38146 -4.78378,7.38146 z m 56.80591,-14.15939 c -0.55733,-3.38898 -3.344,-6.26729 -8.31357,-6.26729 -2.27578,0 -3.80847,0.51067 -5.34111,1.43915 l -2.60091,3.38898 c -1.06824,-2.73902 -3.71557,-4.82813 -7.94199,-4.82813 -2.27579,0 -3.80846,0.51067 -5.34112,1.43915 l -1.99708,3.20329 v -3.99249 h -8.35999 v 24.79055 h 8.35999 V 163.677 c 0,-4.22463 1.06823,-6.68512 3.76198,-6.68512 2.18289,0 3.29757,1.39272 3.57622,3.76036 0.13931,1.25347 0.18576,2.59978 0.18576,3.38898 v 12.62739 h 8.36 v -13.09165 c 0,-4.22462 1.06825,-6.68511 3.762,-6.68511 2.18291,0 3.29755,1.39272 3.57622,3.76036 0.13931,1.25347 0.18577,2.59978 0.18577,3.38898 v 12.62739 h 8.35999 v -14.48436 c 0,-1.99624 -0.0465,-3.43539 -0.23224,-4.68886 z m 16.94278,-6.26729 c -8.12778,0 -13.32956,5.06023 -13.32956,13.04522 0,7.93853 5.20178,13.0452 13.32956,13.0452 8.12779,0 13.32954,-5.10667 13.32954,-13.0452 0,-7.98499 -5.20177,-13.04522 -13.32954,-13.04522 z m 0,20.42668 c -2.97244,0 -4.7838,-2.46049 -4.7838,-7.38146 0,-4.9674 1.81136,-7.38148 4.7838,-7.38148 2.97245,0 4.78377,2.41405 4.78377,7.38148 0,4.92097 -1.81134,7.38146 -4.78377,7.38146 z"
       horiz-adv-x="5836"
       id="path2"
       style="fill:#ffffff;stroke-width:0.26458332"
       inkscape:connector-curvature="0" />
  </g>
</svg>
