<?xml version="1.0" encoding="UTF-8" standalone="no"?>
<!-- Created with Inkscape (http://www.inkscape.org/) -->

<svg
   xmlns:dc="http://purl.org/dc/elements/1.1/"
   xmlns:cc="http://creativecommons.org/ns#"
   xmlns:rdf="http://www.w3.org/1999/02/22-rdf-syntax-ns#"
   xmlns:svg="http://www.w3.org/2000/svg"
   xmlns="http://www.w3.org/2000/svg"
   xmlns:sodipodi="http://sodipodi.sourceforge.net/DTD/sodipodi-0.dtd"
   xmlns:inkscape="http://www.inkscape.org/namespaces/inkscape"
   width="920mm"
   height="680mm"
   viewBox="0 0 920 680"
   version="1.1"
   id="svg8"
   inkscape:version="0.92.3 (2405546, 2018-03-11)"
   sodipodi:docname="chrome_large_tile.svg"
   inkscape:export-filename="/home/lukas/git/piwik-injector/docs/chrome_large_tile.png"
   inkscape:export-xdpi="25.4"
   inkscape:export-ydpi="25.4">
  <defs
     id="defs2" />
  <sodipodi:namedview
     id="base"
     pagecolor="#ffffff"
     bordercolor="#666666"
     borderopacity="1.0"
     inkscape:pageopacity="0.0"
     inkscape:pageshadow="2"
     inkscape:zoom="0.175"
     inkscape:cx="1048.2279"
     inkscape:cy="903.10654"
     inkscape:document-units="mm"
     inkscape:current-layer="layer1"
     showgrid="false"
     inkscape:window-width="1920"
     inkscape:window-height="1051"
     inkscape:window-x="0"
     inkscape:window-y="0"
     inkscape:window-maximized="1"
     inkscape:snap-bbox="true"
     inkscape:bbox-paths="true"
     inkscape:bbox-nodes="true"
     inkscape:snap-bbox-edge-midpoints="true"
     inkscape:snap-bbox-midpoints="true"
     inkscape:object-paths="true"
     inkscape:snap-intersection-paths="true"
     inkscape:snap-smooth-nodes="true"
     inkscape:snap-midpoints="true"
     inkscape:snap-object-midpoints="true"
     inkscape:snap-center="true"
     inkscape:snap-text-baseline="true"
     inkscape:snap-page="true" />
  <metadata
     id="metadata5">
    <rdf:RDF>
      <cc:Work
         rdf:about="">
        <dc:format>image/svg+xml</dc:format>
        <dc:type
           rdf:resource="http://purl.org/dc/dcmitype/StillImage" />
        <dc:title />
      </cc:Work>
    </rdf:RDF>
  </metadata>
  <g
     inkscape:label="Ebene 1"
     inkscape:groupmode="layer"
     id="layer1"
     transform="translate(0,383)">
    <rect
       style="opacity:1;fill:#d9292a;fill-opacity:1;stroke:#aa0000;stroke-width:0.4064;stroke-linecap:butt;stroke-linejoin:round;stroke-miterlimit:10;stroke-dasharray:none;stroke-opacity:1"
       id="rect1499"
       width="919.59363"
       height="679.59357"
       x="0.20318604"
       y="-382.79684"
       ry="0"
       rx="0" />
    <text
       xml:space="preserve"
       style="font-style:normal;font-weight:normal;font-size:103.06502533px;line-height:64.41564178px;font-family:sans-serif;letter-spacing:0px;word-spacing:0px;fill:#ffffff;fill-opacity:1;stroke:none;stroke-width:0.26458335px;stroke-linecap:butt;stroke-linejoin:miter;stroke-opacity:1"
       x="51.593433"
       y="134.75923"
       id="text2096"
       transform="scale(0.99984453,1.0001555)"><tspan
         sodipodi:role="line"
         id="tspan2094"
         x="51.593433"
         y="134.75923"
         style="font-style:normal;font-variant:normal;font-weight:bold;font-stretch:normal;font-family:'TeX Gyre Heros';-inkscape-font-specification:'TeX Gyre Heros Bold';fill:#ffffff;stroke-width:0.26458335px">Browser Injector</tspan></text>
    <path
       d="m 246.09496,-278.87858 h -48.15655 l -20.56323,90.51335 -20.56325,-90.51335 H 107.4251 v 121.27024 h 31.6357 v -50.96863 c 0,-10.54531 0,-26.18735 -0.35151,-38.49011 1.93331,12.30276 5.4484,27.94493 8.26049,38.49011 l 13.53305,50.96863 h 32.5145 l 13.35725,-50.96863 c 2.8121,-10.72099 6.32719,-26.18735 8.43617,-38.49011 -0.35149,12.30276 -0.35149,27.94493 -0.35149,38.49011 v 50.96863 h 31.6357 z m 74.1381,121.27024 h 30.93266 c -1.40598,-10.36946 -1.75742,-16.69665 -1.75742,-23.72683 v -26.36313 c 0,-5.79988 -0.17589,-11.24829 -0.52733,-15.99368 -1.406,-17.04815 -11.59981,-30.22971 -41.30221,-30.22971 -23.7268,0 -43.23544,12.47857 -43.41125,34.44779 l 29.8782,-0.1758 c 0.52731,-8.08468 4.74539,-12.83007 12.12705,-12.83007 6.85443,0 10.72099,4.21808 11.24831,8.96347 0.35152,2.98779 0.35152,4.92109 0.35152,6.85439 v 1.40599 h -5.97575 c -31.81151,0 -50.79292,12.30277 -50.79292,32.33871 0,18.10263 14.58755,27.7691 30.05391,27.7691 8.61195,0 16.52085,-2.10909 23.19948,-6.32718 l 3.86664,-9.84228 z m -16.16949,-18.98144 c -6.32719,0 -10.72098,-3.16359 -10.72098,-8.78767 0,-9.31497 10.19382,-13.00575 24.42984,-11.95126 v 6.15138 c 0,9.84228 -7.38167,14.58755 -13.70886,14.58755 z m 102.44535,-54.48376 h 20.739 v -19.68443 h -20.739 V -275.012 h -31.63565 v 24.25403 h -14.93904 v 19.68443 h 14.93904 v 39.19322 c 0,5.27257 0,9.66647 0.35145,15.11485 1.05447,14.41186 8.08471,21.61773 31.46006,21.61773 6.67863,0 12.4785,-0.52731 18.62988,-1.58179 v -19.68444 c -14.93905,0.70299 -17.92692,-1.40599 -18.62988,-10.89678 -0.17586,-2.46059 -0.17586,-5.9757 -0.17586,-9.13917 z m 76.54638,-22.84804 c -30.75685,0 -50.44147,19.15714 -50.44147,49.38688 0,30.0539 19.68446,49.38684 50.44147,49.38684 30.75705,0 50.44148,-19.33294 50.44148,-49.38684 0,-30.22974 -19.68443,-49.38688 -50.44148,-49.38688 z m 0,77.3318 c -11.24829,0 -18.10264,-9.31498 -18.10264,-27.94492 0,-18.80566 6.85435,-27.94494 18.10264,-27.94494 11.24823,0 18.10267,9.13916 18.10267,27.94494 0,18.62994 -6.85444,27.94492 -18.10267,27.94492 z m 214.96372,-53.60496 c -2.10903,-12.83006 -12.65429,-23.72684 -31.46005,-23.72684 -8.61196,0 -14.41191,1.9333 -20.21169,5.44839 l -9.84231,12.83007 c -4.04241,-10.36946 -14.06037,-18.27846 -30.05392,-18.27846 -8.61201,0 -14.41188,1.9333 -20.21175,5.44839 l -7.55731,12.12707 v -15.11485 h -31.6357 v 93.85263 h 31.6357 v -49.56265 c 0,-15.99369 4.04236,-25.30865 14.23602,-25.30865 8.26042,0 12.47858,5.27256 13.53304,14.23605 0.52719,4.74541 0.70297,9.8423 0.70297,12.83008 v 47.80504 h 31.63572 v -49.56264 c 0,-15.99369 4.04243,-25.30866 14.23609,-25.30866 8.2605,0 12.47849,5.27258 13.53306,14.23606 0.52716,4.7454 0.70296,9.84229 0.70296,12.83009 v 47.80504 h 31.63569 v -54.83523 c 0,-7.55739 -0.17578,-13.00578 -0.87883,-17.75117 z m 64.11449,-23.72684 c -30.75696,0 -50.44141,19.15714 -50.44141,49.38688 0,30.0539 19.68445,49.38684 50.44141,49.38684 30.75703,0 50.44139,-19.33294 50.44139,-49.38684 0,-30.22974 -19.68445,-49.38688 -50.44139,-49.38688 z m 0,77.3318 c -11.24823,0 -18.10274,-9.31498 -18.10274,-27.94492 0,-18.80566 6.85451,-27.94494 18.10274,-27.94494 11.24829,0 18.10264,9.13916 18.10264,27.94494 0,18.62994 -6.85443,27.94492 -18.10264,27.94492 z"
       horiz-adv-x="5836"
       id="path2"
       style="fill:#ffffff;stroke-width:0.26458332"
       inkscape:connector-curvature="0" />
  </g>
</svg>
