<?xml version="1.0" encoding="UTF-8" standalone="no"?>
<!-- Created with Inkscape (http://www.inkscape.org/) -->

<svg
   xmlns:dc="http://purl.org/dc/elements/1.1/"
   xmlns:cc="http://creativecommons.org/ns#"
   xmlns:rdf="http://www.w3.org/1999/02/22-rdf-syntax-ns#"
   xmlns:svg="http://www.w3.org/2000/svg"
   xmlns="http://www.w3.org/2000/svg"
   xmlns:sodipodi="http://sodipodi.sourceforge.net/DTD/sodipodi-0.dtd"
   xmlns:inkscape="http://www.inkscape.org/namespaces/inkscape"
   width="440"
   height="280"
   viewBox="0 0 116.41667 74.083334"
   version="1.1"
   id="svg8"
   inkscape:version="0.92.3 (2405546, 2018-03-11)"
   sodipodi:docname="chrome_small_tile.svg"
   inkscape:export-filename="/home/lukas/git/piwik-injector/docs/chrome_small_tile.png"
   inkscape:export-xdpi="96"
   inkscape:export-ydpi="96">
  <defs
     id="defs2" />
  <sodipodi:namedview
     id="base"
     pagecolor="#ffffff"
     bordercolor="#666666"
     borderopacity="1.0"
     inkscape:pageopacity="0.0"
     inkscape:pageshadow="2"
     inkscape:zoom="1.979899"
     inkscape:cx="185.47559"
     inkscape:cy="246.25278"
     inkscape:document-units="px"
     inkscape:current-layer="layer1"
     showgrid="false"
     inkscape:window-width="1920"
     inkscape:window-height="1051"
     inkscape:window-x="0"
     inkscape:window-y="0"
     inkscape:window-maximized="1"
     inkscape:snap-bbox="true"
     inkscape:bbox-paths="true"
     inkscape:bbox-nodes="true"
     inkscape:snap-bbox-edge-midpoints="true"
     inkscape:snap-bbox-midpoints="true"
     inkscape:object-paths="true"
     inkscape:snap-intersection-paths="true"
     inkscape:snap-smooth-nodes="true"
     inkscape:snap-midpoints="true"
     inkscape:snap-object-midpoints="true"
     inkscape:snap-center="true"
     inkscape:snap-text-baseline="true"
     inkscape:snap-page="true"
     units="px" />
  <metadata
     id="metadata5">
    <rdf:RDF>
      <cc:Work
         rdf:about="">
        <dc:format>image/svg+xml</dc:format>
        <dc:type
           rdf:resource="http://purl.org/dc/dcmitype/StillImage" />
        <dc:title></dc:title>
      </cc:Work>
    </rdf:RDF>
  </metadata>
  <g
     inkscape:label="Ebene 1"
     inkscape:groupmode="layer"
     id="layer1"
     transform="translate(0,-222.91666)">
    <rect
       style="opacity:1;fill:#d9292a;fill-opacity:1;stroke:#aa0000;stroke-width:0.4064;stroke-linecap:butt;stroke-linejoin:round;stroke-miterlimit:10;stroke-dasharray:none;stroke-opacity:1"
       id="rect1499"
       width="116.01028"
       height="73.676941"
       x="0.2032"
       y="223.11986"
       ry="0"
       rx="0" />
    <text
       xml:space="preserve"
       style="font-style:normal;font-weight:normal;font-size:11.18359756px;line-height:6.98974848px;font-family:sans-serif;letter-spacing:0px;word-spacing:0px;fill:#ffffff;fill-opacity:1;stroke:none;stroke-width:0.26458335px;stroke-linecap:butt;stroke-linejoin:miter;stroke-opacity:1"
       x="13.841411"
       y="276.28052"
       id="text2096"
       transform="scale(1.000738,0.99926258)"><tspan
         sodipodi:role="line"
         id="tspan2094"
         x="13.841411"
         y="276.28052"
         style="font-style:normal;font-variant:normal;font-weight:bold;font-stretch:normal;font-family:'TeX Gyre Heros';-inkscape-font-specification:'TeX Gyre Heros Bold';fill:#ffffff;stroke-width:0.26458335px">Browser Injector</tspan></text>
    <path
       d="m 37.821361,236.37763 h -4.58973 l -1.959853,8.61397 -1.959853,-8.61397 h -4.706987 v 11.54105 h 3.015152 v -4.85059 c 0,-1.00358 0,-2.4922 -0.0335,-3.66303 0.184262,1.17083 0.51928,2.65947 0.787295,3.66303 l 1.289815,4.85059 h 3.098913 l 1.273057,-4.85059 c 0.268018,-1.0203 0.603036,-2.4922 0.80404,-3.66303 -0.0335,1.17083 -0.0335,2.65947 -0.0335,3.66303 v 4.85059 h 3.015153 z m 7.065995,11.54105 h 2.948147 c -0.134002,-0.98684 -0.167497,-1.58899 -0.167497,-2.25804 v -2.50893 c 0,-0.55196 -0.01676,-1.07048 -0.05026,-1.52208 -0.134005,-1.62244 -1.105558,-2.87691 -3.936453,-2.87691 -2.261368,0 -4.120708,1.18757 -4.137463,3.27833 l 2.847648,-0.0167 c 0.05026,-0.76941 0.452278,-1.22101 1.155813,-1.22101 0.653282,0 1.0218,0.40142 1.072058,0.85303 0.0335,0.28434 0.0335,0.46833 0.0335,0.65232 v 0.1338 h -0.569538 c -3.031908,0 -4.841001,1.17083 -4.841001,3.07762 0,1.72279 1.390318,2.64273 2.864396,2.64273 0.820792,0 1.574577,-0.20072 2.211107,-0.60215 l 0.368523,-0.93667 z m -1.541091,-1.80643 c -0.603035,0 -1.0218,-0.30107 -1.0218,-0.83631 0,-0.88648 0.971558,-1.23773 2.32837,-1.13737 v 0.58541 c 0,0.93667 -0.703535,1.38827 -1.30657,1.38827 z m 9.763922,-5.18511 h 1.976603 v -1.87333 h -1.976603 v -2.30821 h -3.01515 v 2.30821 h -1.42382 v 1.87333 h 1.42382 v 3.72994 c 0,0.50178 0,0.91994 0.0335,1.43845 0.1005,1.37155 0.77054,2.05732 2.998411,2.05732 0.63653,0 1.18931,-0.0502 1.775587,-0.15054 v -1.87333 c -1.42382,0.0669 -1.708587,-0.1338 -1.775587,-1.03702 -0.01676,-0.23417 -0.01676,-0.5687 -0.01676,-0.86976 z m 7.295522,-2.17441 c -2.931392,0 -4.807503,1.82315 -4.807503,4.70006 0,2.86017 1.876097,4.70005 4.807503,4.70005 2.931411,0 4.807503,-1.83988 4.807503,-4.70005 0,-2.87691 -1.876092,-4.70006 -4.807503,-4.70006 z m 0,7.35952 c -1.072058,0 -1.725338,-0.88649 -1.725338,-2.65946 0,-1.7897 0.65328,-2.65947 1.725338,-2.65947 1.072052,0 1.725338,0.86976 1.725338,2.65947 0,1.77297 -0.653286,2.65946 -1.725338,2.65946 z m 20.48788,-5.10148 c -0.201007,-1.22101 -1.20606,-2.25804 -2.998411,-2.25804 -0.820792,0 -1.373578,0.18399 -1.926345,0.51852 l -0.938058,1.22101 c -0.385275,-0.98684 -1.340075,-1.73953 -2.864395,-1.73953 -0.8208,0 -1.373575,0.18399 -1.926353,0.51852 l -0.720277,1.15411 v -1.43845 h -3.015152 v 8.93177 h 3.015152 v -4.71678 c 0,-1.52209 0.38527,-2.40858 1.356815,-2.40858 0.787288,0 1.189315,0.50178 1.289815,1.35482 0.05024,0.45161 0.067,0.93667 0.067,1.22101 v 4.54951 h 3.015156 v -4.71677 c 0,-1.52209 0.38528,-2.40858 1.356822,-2.40858 0.787296,0 1.189305,0.50178 1.289816,1.35482 0.05024,0.45161 0.067,0.93667 0.067,1.22101 v 4.54951 h 3.01515 v -5.21856 c 0,-0.71922 -0.01676,-1.23773 -0.08376,-1.68934 z m 6.110661,-2.25804 c -2.931402,0 -4.8075,1.82315 -4.8075,4.70006 0,2.86017 1.876098,4.70005 4.8075,4.70005 2.931406,0 4.807493,-1.83988 4.807493,-4.70005 0,-2.87691 -1.876092,-4.70006 -4.807493,-4.70006 z m 0,7.35952 c -1.072055,0 -1.725348,-0.88649 -1.725348,-2.65946 0,-1.7897 0.653293,-2.65947 1.725348,-2.65947 1.072056,0 1.725335,0.86976 1.725335,2.65947 0,1.77297 -0.653287,2.65946 -1.725335,2.65946 z"
       horiz-adv-x="5836"
       id="path2"
       style="fill:#ffffff;stroke-width:0.26458332"
       inkscape:connector-curvature="0" />
  </g>
</svg>
