<?xml version="1.0" encoding="UTF-8" standalone="no"?>
<!-- Created with Inkscape (http://www.inkscape.org/) -->

<svg
   xmlns:dc="http://purl.org/dc/elements/1.1/"
   xmlns:cc="http://creativecommons.org/ns#"
   xmlns:rdf="http://www.w3.org/1999/02/22-rdf-syntax-ns#"
   xmlns:svg="http://www.w3.org/2000/svg"
   xmlns="http://www.w3.org/2000/svg"
   xmlns:sodipodi="http://sodipodi.sourceforge.net/DTD/sodipodi-0.dtd"
   xmlns:inkscape="http://www.inkscape.org/namespaces/inkscape"
   version="1.1"
   id="svg2"
   xml:space="preserve"
   width="300"
   height="300"
   viewBox="0 0 300 300"
   sodipodi:docname="logo.svg"
   inkscape:version="0.92.2 (5c3e80d, 2017-08-06)"
   inkscape:export-filename="/home/lukas/git/piwik-injector/img/icon256.png"
   inkscape:export-xdpi="81.919998"
   inkscape:export-ydpi="81.919998"><metadata
     id="metadata8"><rdf:RDF><cc:Work
         rdf:about=""><dc:format>image/svg+xml</dc:format><dc:type
           rdf:resource="http://purl.org/dc/dcmitype/StillImage" /><dc:title /></cc:Work></rdf:RDF></metadata><defs
     id="defs6" /><sodipodi:namedview
     pagecolor="#ffffff"
     bordercolor="#666666"
     borderopacity="1"
     objecttolerance="10"
     gridtolerance="10"
     guidetolerance="10"
     inkscape:pageopacity="0"
     inkscape:pageshadow="2"
     inkscape:window-width="1920"
     inkscape:window-height="1051"
     id="namedview4"
     showgrid="false"
     fit-margin-top="0"
     fit-margin-left="0"
     fit-margin-right="0"
     fit-margin-bottom="0"
     inkscape:zoom="0.38756065"
     inkscape:cx="470.89404"
     inkscape:cy="121.99334"
     inkscape:window-x="0"
     inkscape:window-y="0"
     inkscape:window-maximized="1"
     inkscape:current-layer="g10"
     units="mm" /><g
     id="g10"
     inkscape:groupmode="layer"
     inkscape:label="ink_ext_XXXXXX"
     transform="matrix(1.3333333,0,0,-1.3333333,0,300.00001)"><g
       id="g4525"
       transform="translate(2.6355028,21.03701)"><path
         d="M 176.399,21.6648 C 176.399,9.56602 185.965,0 198.064,0 c 12.098,0 21.665,9.56602 21.665,21.6648 V 161.261 c 0,12.099 -9.567,21.665 -21.665,21.665 -12.099,0 -21.665,-9.566 -21.665,-21.665 V 21.6648"
         style="fill:#d9292a;fill-opacity:1;fill-rule:nonzero;stroke:none;stroke-width:0.1"
         id="path18"
         inkscape:connector-curvature="0" /><path
         d="m 82.6188,91.5691 -0.0012,0.0075 H 43.3301 v 52.0704 h 38.5238 c 14.3918,0 26.0581,-11.667 26.0581,-26.058 0,-14.134 -11.2589,-25.6117 -25.2932,-26.0199 z M 151.805,117.9 c 0,34.927 -27.63,63.327 -62.214,64.723 l 0.0266,0.134 H 21.6652 C 9.56641,182.757 0,173.19 0,161.092 V 21.9699 C 0,9.87109 9.56641,0.303906 21.6652,0.303906 c 12.0989,0 21.6649,9.567184 21.6649,21.665994 V 53.0301 H 89.6176 L 89.591,53.177 c 34.584,1.3968 62.214,29.796 62.214,64.723"
         style="fill:#d9292a;fill-opacity:1;fill-rule:nonzero;stroke:none;stroke-width:0.1"
         id="path22"
         inkscape:connector-curvature="0" /></g></g></svg>